<svg width="48" height="48" viewBox="0 0 48 48" fill="none" xmlns="http://www.w3.org/2000/svg">
<rect width="48" height="48" fill="#CC2131"/>
<path d="M24.1684 45.1128C23.299 45.1128 22.5537 44.9886 21.9326 44.7401C21.3153 44.4955 20.8354 44.1567 20.4929 43.7238C20.1541 43.2948 19.964 42.8017 19.9226 42.2446H22.9263C22.9564 42.429 23.0317 42.5777 23.1522 42.6906C23.2726 42.8035 23.4269 42.8845 23.6151 42.9334C23.8071 42.9861 24.0216 43.0125 24.2588 43.0125C24.6615 43.0125 24.9946 42.9146 25.2581 42.7189C25.5254 42.5231 25.659 42.1693 25.659 41.6574V40.1894H25.5686C25.4557 40.483 25.2826 40.7333 25.0492 40.9404C24.8158 41.1436 24.5354 41.2998 24.208 41.409C23.8805 41.5144 23.521 41.5671 23.1296 41.5671C22.5123 41.5671 21.9439 41.424 21.4245 41.138C20.9088 40.8519 20.4948 40.3983 20.1824 39.7773C19.8737 39.1562 19.7194 38.3451 19.7194 37.3439C19.7194 36.2975 19.8812 35.4468 20.2049 34.7919C20.5324 34.1369 20.954 33.657 21.4696 33.3521C21.9891 33.0472 22.5349 32.8948 23.107 32.8948C23.5361 32.8948 23.9125 32.9701 24.2362 33.1206C24.5599 33.2674 24.8309 33.4651 25.0492 33.7135C25.2675 33.9581 25.4331 34.2273 25.5461 34.5209H25.6138V33.0077H28.7304V41.6574C28.7304 42.3914 28.5403 43.0143 28.1602 43.5262C27.7838 44.0419 27.253 44.4352 26.568 44.7063C25.8829 44.9773 25.0831 45.1128 24.1684 45.1128ZM24.2814 39.3538C24.5674 39.3538 24.8121 39.2748 25.0153 39.1167C25.2224 38.9549 25.3804 38.7252 25.4896 38.4279C25.6025 38.1268 25.659 37.7654 25.659 37.3439C25.659 36.9148 25.6025 36.5478 25.4896 36.2429C25.3804 35.9342 25.2224 35.699 25.0153 35.5371C24.8121 35.3715 24.5674 35.2887 24.2814 35.2887C23.9953 35.2887 23.7506 35.3715 23.5474 35.5371C23.3479 35.699 23.1936 35.9342 23.0844 36.2429C22.979 36.5478 22.9263 36.9148 22.9263 37.3439C22.9263 37.773 22.979 38.1381 23.0844 38.4392C23.1936 38.7365 23.3479 38.9643 23.5474 39.1224C23.7506 39.2767 23.9953 39.3538 24.2814 39.3538ZM35.1057 33.0077V35.2661H29.3919V33.0077H35.1057ZM30.4985 30.93H33.6151V38.8909C33.6151 39.0113 33.6358 39.1129 33.6772 39.1957C33.7187 39.2748 33.7826 39.335 33.8692 39.3764C33.9558 39.4141 34.0668 39.4329 34.2023 39.4329C34.2964 39.4329 34.4056 39.4216 34.5298 39.399C34.6578 39.3764 34.7519 39.3576 34.8121 39.3425L35.2638 41.5332C35.1245 41.5746 34.925 41.6254 34.6653 41.6856C34.4093 41.7459 34.1045 41.7854 33.7506 41.8042C33.0355 41.8418 32.4351 41.7684 31.9496 41.584C31.464 41.3958 31.0989 41.1003 30.8542 40.6976C30.6096 40.2948 30.491 39.7905 30.4985 39.1845V30.93ZM38.4124 41.8155C37.8591 41.8155 37.3697 41.7252 36.9444 41.5445C36.5228 41.3601 36.1916 41.0815 35.9507 40.7089C35.7098 40.3362 35.5894 39.862 35.5894 39.2861C35.5894 38.8118 35.6703 38.4072 35.8321 38.0722C35.994 37.7334 36.2198 37.4568 36.5097 37.2422C36.7995 37.0277 37.1364 36.8639 37.5203 36.751C37.908 36.6381 38.3258 36.5647 38.7737 36.5308C39.2593 36.4932 39.6488 36.448 39.9424 36.3953C40.2398 36.3389 40.4543 36.2617 40.5861 36.1638C40.7178 36.0622 40.7837 35.9286 40.7837 35.763V35.7404C40.7837 35.5146 40.6971 35.3414 40.524 35.221C40.3508 35.1005 40.1287 35.0403 39.8577 35.0403C39.5604 35.0403 39.3176 35.1062 39.1294 35.2379C38.945 35.3659 38.8339 35.5635 38.7963 35.8307H35.9281C35.9658 35.3038 36.1333 34.8182 36.4306 34.3741C36.7317 33.9261 37.1702 33.5686 37.7461 33.3013C38.322 33.0303 39.041 32.8948 39.9029 32.8948C40.524 32.8948 41.081 32.9682 41.5741 33.115C42.0672 33.258 42.4869 33.4594 42.8332 33.7191C43.1795 33.9751 43.443 34.2762 43.6236 34.6225C43.8081 34.965 43.9003 35.3376 43.9003 35.7404V41.68H40.9869V40.4605H40.9192C40.746 40.7842 40.5353 41.0458 40.2868 41.2453C40.0422 41.4447 39.7618 41.5897 39.4456 41.68C39.1332 41.7703 38.7888 41.8155 38.4124 41.8155ZM39.4286 39.8507C39.6658 39.8507 39.8879 39.8018 40.0949 39.7039C40.3057 39.606 40.4769 39.4649 40.6087 39.2804C40.7404 39.096 40.8063 38.872 40.8063 38.6086V37.8859C40.7235 37.9198 40.635 37.9517 40.5409 37.9819C40.4506 38.012 40.3527 38.0402 40.2473 38.0665C40.1457 38.0929 40.0365 38.1174 39.9198 38.1399C39.8069 38.1625 39.6884 38.1832 39.5641 38.2021C39.3233 38.2397 39.1256 38.3018 38.9713 38.3884C38.8208 38.4712 38.7078 38.5747 38.6326 38.6989C38.561 38.8193 38.5253 38.9549 38.5253 39.1054C38.5253 39.3463 38.61 39.5307 38.7794 39.6587C38.9487 39.7867 39.1652 39.8507 39.4286 39.8507Z" fill="white"/>
<path d="M5.95126 9.14171V4.98675H7.20898V9.14171H5.95126ZM4.50264 7.69309V6.43537H8.6576V7.69309H4.50264ZM12.3547 6.52521V7.69309H9.65961V6.52521H12.3547ZM13.3567 6.69365V5.43594H17.5117V6.69365H13.3567ZM13.3567 8.69253V7.43481H17.5117V8.69253H13.3567Z" fill="white"/>
</svg>
