<svg width="208" height="32" viewBox="0 0 208 32" fill="none" xmlns="http://www.w3.org/2000/svg">
<path d="M29.4026 9.04819L30.3384 4.63135H46.5852L45.513 9.04819H29.4026Z" fill="#CC2131"/>
<path fill-rule="evenodd" clip-rule="evenodd" d="M44.4087 13.8162H28.2323L27.2961 18.2624H43.4722L44.4087 13.8162Z" fill="#CC2131"/>
<path d="M41.659 27.4183L42.5948 22.9721H27.0721L26 27.4183H41.659Z" fill="#CC2131"/>
<path d="M17.4217 12.2797C17.2629 11.7277 17.0398 11.24 16.7525 10.8165C16.4651 10.3855 16.1135 10.0226 15.6977 9.72766C15.2893 9.4252 14.8205 9.19458 14.2912 9.03579C13.7695 8.87699 13.191 8.7976 12.5559 8.7976C11.3687 8.7976 10.3252 9.0925 9.4254 9.68229C8.53314 10.2721 7.83748 11.1303 7.33843 12.257C6.83937 13.3761 6.58984 14.7447 6.58984 16.3629C6.58984 17.981 6.83559 19.3572 7.32708 20.4914C7.81858 21.6257 8.51424 22.4915 9.41405 23.0888C10.3139 23.6786 11.3763 23.9735 12.6012 23.9735C13.7128 23.9735 14.6617 23.7769 15.4481 23.3837C16.2421 22.983 16.847 22.4196 17.2629 21.6937C17.6863 20.9678 17.898 20.1096 17.898 19.119L18.8962 19.2665H12.9075V15.5689H22.6278V18.4952C22.6278 20.5368 22.1968 22.2911 21.3347 23.758C20.4727 25.2174 19.2856 26.344 17.7733 27.138C16.261 27.9244 14.5294 28.3176 12.5785 28.3176C10.4008 28.3176 8.48777 27.8374 6.83937 26.8771C5.19096 25.9092 3.90551 24.5368 2.98301 22.7599C2.06807 20.9754 1.6106 18.8582 1.6106 16.4082C1.6106 14.5254 1.88281 12.8468 2.42724 11.3723C2.97923 9.89023 3.7505 8.63503 4.74105 7.60666C5.73161 6.5783 6.88474 5.79569 8.20043 5.25882C9.51613 4.72196 10.9415 4.45352 12.4765 4.45352C13.7922 4.45352 15.0171 4.64634 16.1513 5.03198C17.2856 5.41005 18.2912 5.94692 19.1684 6.64257C20.0531 7.33823 20.7752 8.16621 21.3347 9.12652C21.8943 10.0793 22.2535 11.1303 22.4123 12.2797H17.4217Z" fill="#CC2131"/>
<path d="M50.0189 28V4.7711H54.9301V23.9508H64.8886V28H50.0189ZM75.6089 28H67.3744V4.7711H75.6769C78.0134 4.7711 80.0248 5.23614 81.711 6.1662C83.3972 7.0887 84.694 8.41574 85.6014 10.1473C86.5163 11.8789 86.9738 13.9508 86.9738 16.3629C86.9738 18.7825 86.5163 20.862 85.6014 22.6011C84.694 24.3402 83.3897 25.6748 81.6883 26.6049C79.9945 27.535 77.9681 28 75.6089 28ZM72.2856 23.792H75.4047C76.8565 23.792 78.0777 23.5349 79.0683 23.0208C80.0664 22.499 80.815 21.6937 81.314 20.6049C81.8206 19.5084 82.074 18.0944 82.074 16.3629C82.074 14.6464 81.8206 13.2438 81.314 12.1549C80.815 11.066 80.0702 10.2645 79.0796 9.75035C78.089 9.23616 76.8679 8.97907 75.4161 8.97907H72.2856V23.792ZM87.9001 8.82028V4.7711H106.978V8.82028H99.8661V28H95.0117V8.82028H87.9001ZM109.353 28V4.7711H125.005V8.82028H114.264V14.3553H124.2V18.4045H114.264V23.9508H125.051V28H109.353ZM128.143 28V4.7711H133.054V23.9508H143.013V28H128.143ZM150.095 28H144.832L152.851 4.7711H159.18L167.188 28H161.925L156.107 10.0793H155.925L150.095 28ZM149.766 18.8695H162.197V22.7032H149.766V18.8695ZM169.217 28V4.7711H178.382C180.144 4.7711 181.645 5.10759 182.885 5.78056C184.125 6.44598 185.07 7.37226 185.72 8.55941C186.378 9.739 186.707 11.1001 186.707 12.6426C186.707 14.1852 186.374 15.5462 185.709 16.7258C185.043 17.9054 184.079 18.8241 182.817 19.482C181.561 20.1398 180.042 20.4688 178.257 20.4688H172.416V16.533H177.463C178.408 16.533 179.187 16.3704 179.8 16.0453C180.42 15.7126 180.881 15.2551 181.183 14.6729C181.493 14.0831 181.648 13.4063 181.648 12.6426C181.648 11.8713 181.493 11.1984 181.183 10.6237C180.881 10.0415 180.42 9.59155 179.8 9.27397C179.18 8.94883 178.393 8.78626 177.44 8.78626H174.128V28H169.217ZM189.13 28V4.7711H198.295C200.057 4.7711 201.558 5.10759 202.798 5.78056C204.038 6.44598 204.983 7.37226 205.633 8.55941C206.291 9.739 206.62 11.1001 206.62 12.6426C206.62 14.1852 206.287 15.5462 205.622 16.7258C204.957 17.9054 203.993 18.8241 202.73 19.482C201.475 20.1398 199.955 20.4688 198.17 20.4688H192.329V16.533H197.376C198.321 16.533 199.1 16.3704 199.713 16.0453C200.333 15.7126 200.794 15.2551 201.096 14.6729C201.406 14.0831 201.562 13.4063 201.562 12.6426C201.562 11.8713 201.406 11.1984 201.096 10.6237C200.794 10.0415 200.333 9.59155 199.713 9.27397C199.093 8.94883 198.306 8.78626 197.354 8.78626H194.042V28H189.13Z" fill="#CC2131"/>
</svg>
