<svg width="17" height="16" viewBox="0 0 17 16" fill="none" xmlns="http://www.w3.org/2000/svg">
<path d="M9.75 14L15 8.75M9.75 14V9.5C9.75 9.30109 9.82902 9.11032 9.96967 8.96967C10.1103 8.82902 10.3011 8.75 10.5 8.75H15M9.75 14H4.5C4.10218 14 3.72064 13.842 3.43934 13.5607C3.15804 13.2794 3 12.8978 3 12.5V3.5C3 3.10218 3.15804 2.72064 3.43934 2.43934C3.72064 2.15804 4.10218 2 4.5 2H13.5C13.8978 2 14.2794 2.15804 14.5607 2.43934C14.842 2.72064 15 3.10218 15 3.5V8.75" stroke="#F5F5F5" stroke-width="1.7" stroke-linecap="round" stroke-linejoin="round"/>
</svg>
