<svg width="17" height="16" viewBox="0 0 17 16" fill="none" xmlns="http://www.w3.org/2000/svg">
<path d="M9.90202 1.33333H4.56868C4.21506 1.33333 3.87592 1.47381 3.62588 1.72386C3.37583 1.9739 3.23535 2.31304 3.23535 2.66667V13.3333C3.23535 13.687 3.37583 14.0261 3.62588 14.2761C3.87592 14.5262 4.21506 14.6667 4.56868 14.6667H12.5687C12.9223 14.6667 13.2614 14.5262 13.5115 14.2761C13.7615 14.0261 13.902 13.687 13.902 13.3333V5.33333M9.90202 1.33333L13.902 5.33333M9.90202 1.33333L9.90202 5.33333H13.902M11.2354 8.66666H5.90202M11.2354 11.3333H5.90202M7.23535 6H5.90202" stroke="#F5F5F5" stroke-width="1.6" stroke-linecap="round" stroke-linejoin="round"/>
</svg>
