<svg width="17" height="16" viewBox="0 0 17 16" fill="none" xmlns="http://www.w3.org/2000/svg">
<g clip-path="url(#clip0_10_447)">
<path d="M1.23535 2.66667V6.66667M1.23535 6.66667H5.23535M1.23535 6.66667L4.32868 3.76C5.24929 2.84095 6.44365 2.24598 7.7318 2.06474C9.01995 1.88351 10.3321 2.12582 11.4706 2.75518C12.609 3.38453 13.5121 4.36683 14.0438 5.55407C14.5754 6.7413 14.7068 8.06916 14.4182 9.33757C14.1295 10.606 13.4365 11.7462 12.4434 12.5865C11.4504 13.4268 10.2112 13.9216 8.9125 13.9963C7.61381 14.0711 6.326 13.7217 5.24312 13.0009C4.16024 12.2801 3.34095 11.2269 2.90868 10" stroke="#F5F5F5" stroke-width="1.6" stroke-linecap="round" stroke-linejoin="round"/>
</g>
<defs>
<clipPath id="clip0_10_447">
<rect width="16" height="16" fill="white" transform="translate(0.568604)"/>
</clipPath>
</defs>
</svg>
