<svg width="600" height="426" viewBox="0 0 600 426" fill="none" xmlns="http://www.w3.org/2000/svg">
<circle cx="375.932" cy="71.9283" r="71.1224" fill="#0040FF"/>
<path d="M72.1885 385.532C63.6067 385.532 56.1186 384.185 49.7243 381.493C43.4982 378.801 38.6183 374.342 35.0846 368.116C31.5509 361.889 29.7841 353.476 29.7841 342.875V283.811H8.07704V258.318H29.7841L33.3178 224.748H60.073V258.318H94.6528V283.811H60.073V342.875C60.073 349.269 61.4192 353.728 64.1115 356.252C66.9721 358.608 71.6837 359.786 78.2463 359.786H93.8956V385.532H72.1885ZM173.455 388.561C160.835 388.561 149.729 385.868 140.137 380.483C130.546 374.931 123.058 367.19 117.673 357.262C112.288 347.334 109.596 335.892 109.596 322.935C109.596 309.473 112.204 297.694 117.421 287.598C122.805 277.501 130.294 269.592 139.885 263.871C149.645 258.15 160.919 255.289 173.708 255.289C186.16 255.289 197.013 258.066 206.268 263.619C215.523 269.172 222.675 276.66 227.723 286.083C232.771 295.338 235.295 305.771 235.295 317.382C235.295 319.064 235.295 320.915 235.295 322.935C235.295 324.954 235.127 327.057 234.79 329.245H131.303V309.809H204.754C204.417 300.554 201.304 293.319 195.415 288.102C189.525 282.718 182.205 280.025 173.455 280.025C167.229 280.025 161.508 281.456 156.291 284.316C151.075 287.177 146.952 291.468 143.924 297.189C140.895 302.742 139.38 309.809 139.38 318.391V325.711C139.38 333.62 140.811 340.435 143.671 346.156C146.7 351.877 150.739 356.252 155.787 359.281C161.003 362.142 166.808 363.572 173.203 363.572C180.27 363.572 186.076 362.058 190.619 359.029C195.331 356 198.78 351.961 200.968 346.913H231.761C229.406 354.822 225.535 361.974 220.151 368.368C214.766 374.594 208.119 379.558 200.21 383.26C192.302 386.794 183.383 388.561 173.455 388.561ZM257.203 385.532V203.798H287.492V385.532H257.203ZM315.233 385.532V203.798H345.522V385.532H315.233ZM432.831 388.561C420.211 388.561 409.105 385.868 399.514 380.483C389.922 374.931 382.434 367.19 377.049 357.262C371.665 347.334 368.972 335.892 368.972 322.935C368.972 309.473 371.581 297.694 376.797 287.598C382.182 277.501 389.67 269.592 399.261 263.871C409.021 258.15 420.295 255.289 433.084 255.289C445.536 255.289 456.39 258.066 465.644 263.619C474.899 269.172 482.051 276.66 487.099 286.083C492.147 295.338 494.671 305.771 494.671 317.382C494.671 319.064 494.671 320.915 494.671 322.935C494.671 324.954 494.503 327.057 494.167 329.245H390.679V309.809H464.13C463.793 300.554 460.68 293.319 454.791 288.102C448.901 282.718 441.582 280.025 432.831 280.025C426.605 280.025 420.884 281.456 415.668 284.316C410.451 287.177 406.329 291.468 403.3 297.189C400.271 302.742 398.756 309.809 398.756 318.391V325.711C398.756 333.62 400.187 340.435 403.047 346.156C406.076 351.877 410.115 356.252 415.163 359.281C420.379 362.142 426.185 363.572 432.579 363.572C439.646 363.572 445.452 362.058 449.995 359.029C454.707 356 458.156 351.961 460.344 346.913H491.138C488.782 354.822 484.912 361.974 479.527 368.368C474.142 374.594 467.495 379.558 459.587 383.26C451.678 386.794 442.76 388.561 432.831 388.561ZM516.579 385.532V258.318H543.587L546.364 282.045C549.392 276.492 553.179 271.78 557.722 267.91C562.265 263.871 567.566 260.758 573.624 258.571C579.85 256.383 586.665 255.289 594.069 255.289V287.345H583.467C578.419 287.345 573.624 288.018 569.08 289.364C564.537 290.542 560.583 292.562 557.217 295.422C554.02 298.115 551.496 301.901 549.645 306.781C547.794 311.492 546.868 317.466 546.868 324.701V385.532H516.579Z" fill="#0040FF"/>
<rect y="0.805908" width="276.869" height="147.325" fill="#0040FF"/>
</svg>
