<svg width="17" height="16" viewBox="0 0 17 16" fill="none" xmlns="http://www.w3.org/2000/svg">
<path d="M2.88037 4.00001H4.2137M4.2137 4.00001H14.8804M4.2137 4.00001L4.2137 13.3333C4.2137 13.687 4.35418 14.0261 4.60423 14.2762C4.85428 14.5262 5.19342 14.6667 5.54704 14.6667H12.2137C12.5673 14.6667 12.9065 14.5262 13.1565 14.2762C13.4066 14.0261 13.547 13.687 13.547 13.3333V4.00001M6.2137 4.00001V2.66668C6.2137 2.31305 6.35418 1.97392 6.60423 1.72387C6.85428 1.47382 7.19342 1.33334 7.54704 1.33334H10.2137C10.5673 1.33334 10.9065 1.47382 11.1565 1.72387C11.4066 1.97392 11.547 2.31305 11.547 2.66668V4.00001" stroke="#1E1E1E" stroke-width="1.6" stroke-linecap="round" stroke-linejoin="round"/>
</svg>
